<svg width="145" height="21" viewBox="0 0 145 21" fill="none" xmlns="http://www.w3.org/2000/svg">
<path d="M5.25817 2.27279C7.17238 2.34895 9.09381 2.41243 10.9936 2.62188C11.4342 2.67265 13.2978 2.86941 13.5362 3.01539C13.8829 3.23753 13.6879 3.8405 13.2473 3.83415L6.27668 4.17054L6.92678 10.6318L13.4495 9.93359C14.1358 9.90185 14.1141 10.765 13.5073 10.892L7.02069 11.5711L7.58412 15.1C9.585 14.8652 11.5859 14.5796 13.6157 14.6938C14.0996 14.7192 16.3245 14.9858 16.5701 15.2206C16.7506 15.3983 16.7506 15.7792 16.5267 15.9315C16.4039 16.014 16.0283 16.0521 15.8477 16.0775C13.5362 16.4265 11.1669 16.5535 8.85544 16.9089C8.68208 17.9498 6.8401 17.1628 5.98774 17.239C5.88661 17.7404 6.47171 18.9717 5.55433 19.0478C4.75976 19.1113 5.02702 18.1148 4.84644 17.9879C4.78865 17.9498 4.4636 18.0006 4.26134 17.8863C4.05909 17.7721 4.04464 17.5119 4.00852 17.4865C3.92907 17.4357 2.3038 17.7467 2.00764 17.734C1.45866 17.715 1.29974 17.3532 1.40809 16.9153L2.71553 16.7058C2.78054 15.9442 3.37286 16.0775 4.02297 15.8744C3.99408 14.5732 4.01575 13.2531 3.73403 11.9773C3.10559 11.971 0.924122 12.4978 0.497941 12.2312C0.310132 12.1169 0.194557 11.7425 0.317355 11.5648C0.497941 11.3045 3.05503 11.1712 3.54622 11.0697L3.26451 8.15644V4.57675C2.84555 5.15432 1.77649 4.46885 1.86317 3.96744C1.9354 3.50411 2.85278 3.53584 3.27173 3.51045C3.31507 3.15502 3.11282 2.25375 3.55345 2.06969C3.69792 2.00622 3.92184 2.05065 4.02297 1.99353C4.15299 1.91736 4.06631 1.60001 4.29746 1.49212C4.99813 1.18111 5.19316 1.79042 5.24373 2.26645L5.25817 2.27279ZM5.43876 10.8285L4.96924 7.29325L5.06314 10.8285H5.43876ZM6.55839 15.3476L5.61935 11.7298L5.15705 11.8186L5.52544 15.5126L6.55839 15.3476Z" fill="white"/>
<path d="M82.1096 4.9318C82.4778 5.35065 82.3334 5.7695 81.6909 5.75681C80.4563 5.74412 78.6225 4.83026 77.3807 4.69064C76.3699 4.57641 75.8429 4.76045 76.3555 5.67431C76.9403 6.71509 79.8137 7.60991 81.0267 8.39684C82.4273 9.3107 83.1565 10.3515 83.9145 11.6969C84.7448 13.1692 83.6474 14.9715 82.3479 15.9425C81.6764 16.4439 79.4239 17.656 78.5936 17.7448C76.24 17.986 73.8647 16.501 72.7168 14.7875C72.4135 14.3433 71.7493 13.2581 72.4424 12.9154C73.1355 12.5727 73.085 13.3279 73.316 13.4421C73.3954 13.4802 73.7564 13.3215 73.9585 13.4992C74.2762 14.9017 75.2076 16.006 76.8609 16.336C77.8428 16.5327 78.2182 16.4375 79.0629 16.0123C79.2723 15.9044 80.5141 15.1429 80.579 15.0413C80.9256 14.5019 80.4996 13.2961 80.1747 12.7694C78.5864 10.1801 74.8466 10.3388 73.8142 7.99703C72.6446 5.33161 75.1931 2.66619 78.3265 2.88196C79.4167 2.95812 81.3515 3.52928 82.3406 3.96083C83.2359 4.35429 83.0626 4.83661 82.124 4.93815L82.1096 4.9318ZM81.6403 13.9688C82.2396 13.5373 82.7594 12.0713 82.3334 11.5065C82.0446 11.1194 79.4455 10.2817 78.7669 9.95166C77.4962 9.33608 76.2977 8.49838 75.222 7.63529L74.5217 6.56913C74.6083 9.08858 77.915 9.38051 79.6693 10.7196C80.6873 11.4938 81.597 12.7567 81.6331 13.9688H81.6403ZM81.4526 10.0215C80.1025 8.40953 77.7128 8.12395 76.0234 6.89913C75.9873 7.06413 76.1461 7.13394 76.2616 7.22279C76.8248 7.69876 77.8355 8.32703 78.4998 8.7078C79.4022 9.22185 80.4274 9.70416 81.4526 10.0215Z" fill="white"/>
<path d="M35.4782 4.2572C35.5215 4.29535 35.6659 4.56872 35.6659 4.61957C35.702 5.03281 33.0957 6.9909 33.2545 7.11805C33.4278 7.15619 33.4783 7.02904 33.5794 6.95275C33.9404 6.68574 34.7779 5.77027 35.1172 5.67491C35.6443 5.52233 36.0702 5.80206 35.897 6.27251C34.2436 7.66479 32.6119 9.07614 31.1896 10.6591C31.8033 11.0024 32.4098 11.581 32.9224 12.0578C33.3556 12.4647 34.5757 13.609 34.7923 14.0413C34.9006 14.2638 34.7057 14.4291 34.7851 14.6961C34.9439 15.2238 35.9331 15.9549 35.7598 16.4508C35.7165 16.5652 35.5288 16.6415 35.5215 16.7114C35.4927 16.9721 36.6623 18.1927 36.1063 18.6441C35.5288 19.1654 33.6516 18.0147 33.204 17.576C32.5903 16.9784 31.76 15.8532 33.3484 15.9676L29.5579 12.471L26.0274 16.6161C25.4571 16.9466 24.9878 16.6733 25.1322 16.0693L26.9877 13.787C26.013 14.5499 24.7928 15.2937 24.2297 16.3427C23.681 16.6478 22.9012 16.686 22.8796 15.9867L27.8107 10.8499C27.8324 10.7545 27.7385 10.6591 27.6808 10.5765C26.836 9.44487 25.4571 8.71377 24.3163 7.85551C24.0708 7.67115 22.9951 6.86375 22.9084 6.70481C22.6557 6.22165 23.1684 6.12629 23.2261 6.03729C23.2983 5.92285 22.7568 4.77215 23.9914 5.10274C24.2802 5.22353 24.208 5.59227 24.2947 5.70034C24.3308 5.7512 24.5473 5.77027 24.6412 5.84656C26.2368 7.00361 27.8974 8.07802 29.4641 9.25415L34.7923 4.23177C34.9512 4.10462 35.3266 4.13641 35.4782 4.2572ZM34.6552 17.4107C34.4602 16.9021 33.9043 16.4381 33.4422 16.0947C33.5722 16.6606 34.2003 17.042 34.6552 17.4107Z" fill="white"/>
<path d="M43.0867 11.1214C43.259 8.51873 43.8117 5.92237 43.46 3.31332C43.3523 3.35141 43.2662 3.3895 43.137 3.39584C42.9001 3.40854 41.4214 3.46567 41.3209 3.44028C40.9117 3.34506 40.8256 2.91339 41.084 2.64042C41.3568 2.34841 42.8211 2.15797 43.2805 1.98658C42.9719 1.5803 42.9791 1.09785 43.6107 1.00897C44.9315 0.818532 47.0635 1.02167 48.535 0.920101C50.5593 0.780444 53.3803 0.164679 55.3328 0.342425C55.7707 0.380514 56.0793 0.653481 55.8209 1.02802C55.6056 1.33907 54.0264 1.43429 53.5454 1.48508C52.6625 1.5803 51.758 1.62474 50.8679 1.66917L50.7603 1.82152C51.0187 2.05005 51.0115 2.40555 50.71 2.60234C48.8221 2.94513 46.8553 2.91974 45.0464 3.55455L44.9459 10.7786L50.3726 9.72486C50.789 9.78199 50.9971 10.3533 50.6239 10.5691L47.6449 11.2674C48.1976 11.4198 50.7603 11.642 51.0402 11.9276C51.3489 12.2514 50.9971 12.7084 50.5736 12.7465C48.7145 12.4672 46.8338 12.2323 44.9459 12.1752L44.8526 18.7137C44.6372 19.0502 44.6301 19.4437 44.4865 19.7865C44.3429 20.1293 43.7974 20.3769 43.4241 20.1547C43.0724 19.9516 43.1083 17.6218 43.0796 17.1457C43.0078 15.6222 42.9216 14.0733 42.9862 12.5371C42.9862 12.3784 43.058 12.2387 43.0867 12.0927L41.6367 11.934C41.3711 11.7499 41.5147 11.1024 41.7372 11.1024H43.0867V11.1214Z" fill="white"/>
<path d="M137.742 3.52147C138.852 3.43944 139.903 3.80541 140.779 4.36068C140.94 4.46164 141.195 4.76451 141.327 4.79606C141.568 4.84654 141.969 4.33544 142.451 4.63831C142.868 4.89702 143.758 8.03933 143.882 8.63246C144.437 11.352 144.138 13.144 141.195 14.5953C139.888 15.2389 139.772 15.018 138.465 14.8603C136.544 14.6331 135.215 14.4565 134.127 12.8853C132.908 11.1375 133.507 10.2541 133.857 8.49995C133.974 7.92575 133.967 7.35155 134.113 6.76473C134.514 5.2062 135.756 3.66659 137.742 3.52147ZM140.407 6.19685L140.677 5.64789C139.713 4.31651 137.391 4.01994 136.15 5.25668C136.471 5.30085 136.749 5.09262 137.055 5.06107C137.917 4.96012 138.574 5.09263 139.297 5.47753C139.728 5.70468 139.983 6.0391 140.4 6.19685H140.407ZM137.457 5.9697C136.099 6.08327 134.945 7.9573 135.018 9.01735C135.113 10.4308 136.23 12.1975 137.428 13.144C138.129 13.6993 138.662 14.1283 139.56 13.51C138.085 12.7339 138.487 11.2384 138.83 10.0206C138.976 9.50322 139.874 7.50299 139.845 7.22536C139.772 6.58175 138.165 5.91291 137.457 5.9697ZM141.451 6.60699C141.203 6.56913 141.305 6.64485 141.254 6.72057C140.845 7.3831 141.495 7.49037 141.342 7.93837C141.232 8.25386 140.67 8.19077 140.589 8.29172C140.443 8.46209 140.056 9.72406 139.961 10.0206C139.75 10.7336 139.151 12.1975 140.035 12.6897C140.721 13.0746 141.137 12.3805 141.407 11.9199C142.349 10.3109 142.108 8.26017 141.451 6.60699ZM135.865 13.144L134.639 11.4277C134.704 12.0966 135.223 12.797 135.865 13.144Z" fill="white"/>
<path d="M102.522 16.0859C102.478 16.0478 102.16 15.9969 102.008 15.9143C98.9891 14.2741 99.5248 10.5041 100.314 7.89751C100.422 7.52878 100.907 6.02842 101.226 5.90127C101.544 5.77412 101.986 5.81862 102.051 6.16828C101.798 7.61778 101.392 12.5067 102.724 13.473C104.056 14.4393 105.178 12.2778 105.417 11.3941C105.888 9.6331 105.28 8.72398 105.251 7.14097C105.243 6.62602 105.736 6.38443 106.163 6.67688C106.474 6.89303 106.684 9.77296 106.778 10.3388C106.8 10.4723 106.821 10.8347 106.952 10.8855C107.017 9.80475 106.995 8.71127 107.046 7.6305C107.075 6.92482 107.039 5.69783 107.147 5.08751C107.241 4.59163 107.878 4.42634 108.161 4.84593C108.515 5.3736 108.674 7.70043 108.638 8.37432C108.58 9.46145 108.189 10.3451 107.987 11.3433C107.69 12.8563 107.972 14.3186 107.154 15.7998C106.278 17.3701 103.969 18.3047 102.71 16.5437C102.616 16.4165 102.558 16.1304 102.514 16.0923L102.522 16.0859ZM102.637 15.0751C102.637 15.0751 102.703 14.8653 102.688 14.8271C102.543 14.522 101.284 13.7464 101.045 13.3459C100.893 13.7464 102.391 15.2595 102.637 15.0751ZM104.889 15.0751C104.498 15.1641 104.114 15.1895 103.716 15.2404C103.549 15.2595 103.557 15.1959 103.578 15.4057C104.013 15.4184 104.606 15.4311 104.889 15.0751ZM104.042 16.3148C104.643 16.8043 105.837 16.194 106.011 15.571C105.446 15.9715 104.802 16.3339 104.042 16.3148Z" fill="white"/>
<path d="M114.809 8.23381C114.751 8.29112 115.368 8.5586 115.042 8.97257C114.933 9.10631 114.73 9.14452 114.672 9.22731C114.454 9.53937 114.701 13.6089 114.73 14.2967C114.73 14.4751 114.643 14.647 114.643 14.7935C114.657 15.2138 115.056 15.7679 114.41 16.0099C113.612 16.3092 113.597 14.9846 113.51 14.5324C113.329 13.5835 113.162 12.6027 113.038 11.6474C112.806 9.8387 112.392 6.48243 113.046 4.83295C113.176 4.50815 113.772 4.48905 114.098 4.53363C117.205 4.92849 121.349 5.89652 122.358 8.83882C124.028 13.7108 119.063 16.6977 114.185 17.2199C113.851 17.2582 112.988 17.3537 112.712 17.2964C112.138 17.1817 112.167 16.5703 112.668 16.3857C113.024 16.2519 114.222 16.2201 114.73 16.1309C117.43 15.6787 121.023 14.2585 121.466 11.5582C121.908 8.85793 117.263 7.32309 114.809 8.24018V8.23381ZM120.834 8.22744C119.694 6.49517 117.002 6.02389 114.904 5.75641L114.809 7.2403C116.428 6.85181 118.156 7.00466 119.673 7.63515C120.079 7.80711 120.42 8.07459 120.834 8.22744Z" fill="white"/>
<path d="M88.8245 4.63359C88.5632 4.58253 88.4036 4.2315 88.3383 4.21874C87.7432 4.09109 85.9 4.58891 85.6969 3.99536C85.5517 3.57413 85.842 3.35075 86.2919 3.30608C87.5908 3.17205 89.8259 3.2614 91.1901 3.30608C92.402 3.34437 94.0492 3.40819 95.2321 3.56137C95.7836 3.63157 97.2929 4.06556 96.7922 4.74208C96.56 5.06119 94.5354 4.69102 94.0565 4.71655C93.193 8.03532 94.0855 11.5136 94.5136 14.8452C94.4121 15.343 94.1218 15.4706 93.5848 15.2983C93.4832 15.4004 93.6864 16.1216 93.6356 16.2939C93.5485 16.6194 92.9535 16.8237 92.6922 16.5365C92.4745 16.3003 92.1335 13.473 92.0754 12.9433C91.8142 10.5946 91.64 7.94597 91.5965 5.59092C91.582 4.64635 92.6269 4.78038 92.685 5.54625C92.8301 5.34201 93.0841 4.81229 92.8737 4.63997H88.8317L88.8245 4.63359Z" fill="white"/>
<path d="M127.295 4.43805C127.625 4.7293 127.366 5.6347 127.732 5.97661C127.761 5.38778 127.897 4.57735 128.759 4.57735C129.735 4.57735 130.093 5.86264 128.895 5.73601C129.046 6.31851 129.125 6.901 129.175 7.49617C129.34 9.39561 129.361 11.3331 129.448 13.2388C129.469 13.6884 129.684 14.7141 129.534 15.113C129.455 15.3092 129.017 15.3346 128.83 15.2712C128.414 15.1193 128.529 14.7647 128.522 14.4292C128.235 14.3722 128.357 14.6697 128.192 14.8344C127.962 15.0686 127.51 15.056 127.331 14.7774C127.122 14.4545 126.893 13.1502 126.799 12.707C126.311 10.4213 125.845 7.42652 126.304 5.13452C126.34 4.9509 126.412 4.46971 126.57 4.38107C126.728 4.29242 127.165 4.33042 127.295 4.44438V4.43805Z" fill="white"/>
<path d="M66.5724 15.7701C66.2474 16.7824 65.7635 17.9896 64.225 17.6061C63.9867 17.5432 63.7267 17.2414 63.6978 17.2351C63.2066 17.1534 62.9827 17.43 62.2893 17.0905C61.4876 16.6944 61.5743 15.965 61.7693 15.2985C62.0871 14.1857 62.6938 12.8276 64.2756 12.8338C64.8534 12.8338 66.2691 13.4374 66.5002 13.9216C66.6086 14.1416 66.5219 14.3806 66.6158 14.5566C66.7458 14.7955 67.8003 15.0848 67.6559 15.5375C67.5114 15.9902 66.9625 15.965 66.5724 15.7764V15.7701Z" fill="white"/>
</svg>
