<svg width="145" height="21" viewBox="0 0 145 21" fill="none" xmlns="http://www.w3.org/2000/svg">
<path d="M5.90075 2.29446C7.81496 2.37062 9.73639 2.43409 11.6361 2.64354C12.0768 2.69432 13.9404 2.89108 14.1788 3.03706C14.5255 3.2592 14.3305 3.86216 13.8899 3.85582L6.91925 4.19221L7.56936 10.6534L14.0921 9.95525C14.7783 9.92352 14.7567 10.7867 14.1499 10.9136L7.66327 11.5928L8.22669 15.1217C10.2276 14.8869 12.2285 14.6012 14.2583 14.7155C14.7422 14.7409 16.967 15.0074 17.2126 15.2423C17.3932 15.42 17.3932 15.8008 17.1693 15.9531C17.0465 16.0357 16.6709 16.0737 16.4903 16.0991C14.1788 16.4482 11.8095 16.5751 9.49802 16.9306C9.32465 17.9715 7.48268 17.1845 6.63032 17.2606C6.52919 17.762 7.11429 18.9933 6.19691 19.0695C5.40234 19.133 5.6696 18.1365 5.48902 18.0096C5.43123 17.9715 5.10618 18.0223 4.90392 17.908C4.70167 17.7938 4.68722 17.5335 4.6511 17.5082C4.57164 17.4574 2.94637 17.7684 2.65021 17.7557C2.10123 17.7366 1.94232 17.3749 2.05067 16.9369L3.35811 16.7275C3.42312 15.9658 4.01544 16.0991 4.66555 15.896C4.63665 14.5949 4.65832 13.2747 4.37661 11.999C3.74817 11.9926 1.5667 12.5194 1.14052 12.2529C0.95271 12.1386 0.837135 11.7641 0.959933 11.5864C1.14052 11.3262 3.69761 11.1929 4.1888 11.0914L3.90709 8.1781V4.59841C3.48813 5.17599 2.41906 4.49051 2.50575 3.9891C2.57798 3.52577 3.49535 3.55751 3.91431 3.53212C3.95765 3.17669 3.7554 2.27542 4.19602 2.09136C4.34049 2.02789 4.56442 2.07232 4.66555 2.01519C4.79557 1.93903 4.70889 1.62168 4.94004 1.51378C5.64071 1.20278 5.83574 1.81209 5.88631 2.28811L5.90075 2.29446ZM6.08134 10.8502L5.61182 7.31492L5.70572 10.8502H6.08134ZM7.20097 15.3692L6.26192 11.7514L5.79962 11.8403L6.16802 15.5342L7.20097 15.3692Z" fill="black"/>
<path d="M82.7527 4.95347C83.1209 5.37232 82.9765 5.79117 82.3339 5.77848C81.0994 5.76579 79.2656 4.85193 78.0238 4.71231C77.013 4.59808 76.486 4.78212 76.9986 5.69597C77.5834 6.73676 80.4568 7.63158 81.6697 8.41851C83.0703 9.33236 83.7995 10.3731 84.5576 11.7185C85.3879 13.1909 84.2905 14.9932 82.9909 15.9642C82.3195 16.4655 80.0669 17.6777 79.2367 17.7665C76.883 18.0077 74.5078 16.5226 73.3598 14.8092C73.0566 14.3649 72.3924 13.2797 73.0855 12.937C73.7786 12.5943 73.728 13.3495 73.9591 13.4638C74.0385 13.5018 74.3995 13.3432 74.6016 13.5209C74.9193 14.9234 75.8506 16.0276 77.5039 16.3576C78.4858 16.5544 78.8612 16.4592 79.706 16.034C79.9153 15.9261 81.1571 15.1645 81.2221 15.063C81.5686 14.5236 81.1427 13.3178 80.8178 12.7911C79.2295 10.2018 75.4896 10.3605 74.4572 8.0187C73.2876 5.35328 75.8362 2.68786 78.9695 2.90363C80.0597 2.97979 81.9946 3.55095 82.9837 3.98249C83.879 4.37596 83.7057 4.85827 82.7671 4.95981L82.7527 4.95347ZM82.2834 13.9905C82.8826 13.559 83.4024 12.093 82.9765 11.5282C82.6877 11.141 80.0886 10.3033 79.4099 9.97333C78.1393 9.35775 76.9408 8.52005 75.8651 7.65696L75.1648 6.5908C75.2514 9.11025 78.558 9.40218 80.3124 10.7412C81.3304 11.5155 82.2401 12.7784 82.2762 13.9905H82.2834ZM82.0957 10.0431C80.7456 8.4312 78.3559 8.14562 76.6665 6.9208C76.6304 7.0858 76.7892 7.15561 76.9047 7.24446C77.4678 7.72042 78.4786 8.3487 79.1428 8.72947C80.0453 9.24352 81.0705 9.72583 82.0957 10.0431Z" fill="black"/>
<path d="M36.1208 4.27887C36.1641 4.31701 36.3085 4.59038 36.3085 4.64124C36.3446 5.05448 33.7382 7.01257 33.8971 7.13972C34.0704 7.17786 34.1209 7.05071 34.222 6.97442C34.583 6.70741 35.4205 5.79194 35.7598 5.69658C36.2869 5.544 36.7128 5.82372 36.5396 6.29417C34.8862 7.68645 33.2545 9.09781 31.8322 10.6808C32.4459 11.0241 33.0524 11.6026 33.565 12.0794C33.9982 12.4863 35.2183 13.6307 35.4349 14.063C35.5432 14.2855 35.3483 14.4508 35.4277 14.7178C35.5865 15.2454 36.5756 15.9766 36.4024 16.4724C36.3591 16.5869 36.1713 16.6632 36.1641 16.7331C36.1352 16.9937 37.3049 18.2144 36.7489 18.6657C36.1713 19.1871 34.2942 18.0364 33.8465 17.5977C33.2329 17.0001 32.4026 15.8748 33.9909 15.9893L30.2005 12.4927L26.67 16.6377C26.0996 16.9683 25.6303 16.6949 25.7747 16.091L27.6302 13.8087C26.6556 14.5716 25.4354 15.3154 24.8723 16.3644C24.3235 16.6695 23.5438 16.7077 23.5221 16.0083L28.4533 10.8715C28.475 10.7762 28.3811 10.6808 28.3233 10.5982C27.4786 9.46654 26.0996 8.73543 24.9589 7.87718C24.7134 7.69281 23.6377 6.88542 23.551 6.72648C23.2983 6.24332 23.8109 6.14796 23.8687 6.05895C23.9409 5.94452 23.3994 4.79382 24.634 5.12441C24.9228 5.2452 24.8506 5.61393 24.9372 5.72201C24.9733 5.77287 25.1899 5.79194 25.2838 5.86823C26.8794 7.02528 28.5399 8.09969 30.1067 9.27581L35.4349 4.25344C35.5937 4.12629 35.9692 4.15808 36.1208 4.27887ZM35.2977 17.4324C35.1028 16.9238 34.5469 16.4597 34.0848 16.1164C34.2148 16.6822 34.8429 17.0637 35.2977 17.4324Z" fill="black"/>
<path d="M43.7293 11.1431C43.9016 8.5404 44.4543 5.94404 44.1026 3.33498C43.9949 3.37307 43.9088 3.41116 43.7796 3.41751C43.5427 3.43021 42.064 3.48734 41.9635 3.46195C41.5543 3.36673 41.4682 2.93506 41.7266 2.66209C41.9994 2.37008 43.4637 2.17964 43.9231 2.00824C43.6145 1.60197 43.6216 1.11951 44.2533 1.03064C45.5741 0.840199 47.7061 1.04334 49.1776 0.941768C51.2018 0.802111 54.0229 0.186347 55.9754 0.364093C56.4132 0.402181 56.7219 0.675149 56.4635 1.04968C56.2481 1.36074 54.6689 1.45596 54.188 1.50675C53.3051 1.60197 52.4006 1.6464 51.5105 1.69084L51.4028 1.84319C51.6613 2.07172 51.6541 2.42722 51.3526 2.62401C49.4647 2.9668 47.4979 2.94141 45.689 3.57621L45.5885 10.8003L51.0152 9.74653C51.4316 9.80366 51.6397 10.375 51.2665 10.5908L48.2875 11.2891C48.8402 11.4415 51.4028 11.6636 51.6828 11.9493C51.9915 12.2731 51.6397 12.7301 51.2162 12.7682C49.357 12.4889 47.4763 12.254 45.5885 12.1969L45.4952 18.7354C45.2798 19.0718 45.2726 19.4654 45.1291 19.8082C44.9855 20.151 44.44 20.3986 44.0667 20.1764C43.715 19.9733 43.7509 17.6435 43.7221 17.1674C43.6504 15.6439 43.5642 14.0949 43.6288 12.5587C43.6288 12.4 43.7006 12.2604 43.7293 12.1144L42.2793 11.9557C42.0137 11.7716 42.1573 11.1241 42.3798 11.1241H43.7293V11.1431Z" fill="black"/>
<path d="M138.384 3.54313C139.494 3.46111 140.545 3.82708 141.421 4.38235C141.582 4.4833 141.838 4.78618 141.969 4.81773C142.21 4.86821 142.612 4.35711 143.093 4.65998C143.51 4.91869 144.4 8.061 144.525 8.65413C145.08 11.3737 144.78 13.1657 141.838 14.6169C140.531 15.2605 140.414 15.0397 139.107 14.882C137.186 14.6548 135.857 14.4781 134.77 12.907C133.55 11.1591 134.149 10.2758 134.499 8.52161C134.616 7.94742 134.609 7.37322 134.755 6.7864C135.157 5.22787 136.398 3.68826 138.384 3.54313ZM141.049 6.21852L141.319 5.66956C140.355 4.33818 138.033 4.04161 136.792 5.27835C137.113 5.32251 137.391 5.11429 137.697 5.08274C138.559 4.98178 139.216 5.11429 139.939 5.49919C140.37 5.72635 140.625 6.06077 141.042 6.21852H141.049ZM138.099 5.99136C136.741 6.10494 135.587 7.97897 135.66 9.03902C135.755 10.4524 136.872 12.2192 138.07 13.1657C138.771 13.7209 139.304 14.15 140.202 13.5316C138.727 12.7555 139.129 11.2601 139.472 10.0423C139.618 9.52488 140.516 7.52466 140.487 7.24702C140.414 6.60342 138.807 5.93457 138.099 5.99136ZM142.093 6.62866C141.845 6.5908 141.947 6.66651 141.896 6.74223C141.487 7.40477 142.137 7.51204 141.984 7.96004C141.874 8.27553 141.312 8.21243 141.232 8.31339C141.085 8.48376 140.698 9.74573 140.604 10.0423C140.392 10.7553 139.793 12.2192 140.677 12.7114C141.363 13.0963 141.779 12.4022 142.049 11.9416C142.991 10.3325 142.75 8.28184 142.093 6.62866ZM136.507 13.1657L135.281 11.4494C135.346 12.1182 135.865 12.8186 136.507 13.1657Z" fill="black"/>
<path d="M103.164 16.1076C103.121 16.0695 102.802 16.0186 102.65 15.9359C99.6317 14.2957 100.167 10.5257 100.956 7.91918C101.065 7.55045 101.55 6.05009 101.868 5.92294C102.187 5.79579 102.629 5.84029 102.694 6.18995C102.44 7.63945 102.035 12.5283 103.367 13.4947C104.699 14.461 105.821 12.2995 106.06 11.4158C106.53 9.65477 105.922 8.74565 105.893 7.16264C105.886 6.64769 106.378 6.4061 106.805 6.69854C107.116 6.9147 107.326 9.79463 107.421 10.3604C107.442 10.494 107.464 10.8563 107.594 10.9072C107.659 9.82642 107.638 8.73293 107.688 7.65216C107.717 6.94649 107.681 5.71949 107.79 5.10918C107.884 4.61329 108.521 4.448 108.803 4.8676C109.158 5.39526 109.317 7.7221 109.281 8.39599C109.223 9.48312 108.832 10.3668 108.629 11.3649C108.333 12.878 108.615 14.3402 107.797 15.8215C106.921 17.3918 104.612 18.3264 103.352 16.5653C103.258 16.4382 103.2 16.1521 103.157 16.114L103.164 16.1076ZM103.28 15.0968C103.28 15.0968 103.345 14.887 103.331 14.8488C103.186 14.5437 101.926 13.768 101.687 13.3675C101.535 13.768 103.034 15.2811 103.28 15.0968ZM105.531 15.0968C105.14 15.1858 104.757 15.2112 104.359 15.2621C104.192 15.2811 104.199 15.2176 104.221 15.4273C104.655 15.4401 105.249 15.4528 105.531 15.0968ZM104.684 16.3365C105.285 16.826 106.479 16.2157 106.653 15.5926C106.089 15.9932 105.444 16.3555 104.684 16.3365Z" fill="black"/>
<path d="M115.452 8.25547C115.394 8.31279 116.011 8.58027 115.684 8.99423C115.575 9.12797 115.372 9.16619 115.314 9.24898C115.096 9.56104 115.343 13.6306 115.372 14.3184C115.372 14.4967 115.285 14.6687 115.285 14.8152C115.3 15.2355 115.699 15.7896 115.053 16.0316C114.254 16.3309 114.24 15.0062 114.153 14.5541C113.971 13.6051 113.804 12.6244 113.681 11.6691C113.449 9.86037 113.035 6.5041 113.688 4.85462C113.819 4.52982 114.414 4.51072 114.741 4.5553C117.847 4.95016 121.992 5.91818 123.001 8.86049C124.67 13.7325 119.706 16.7194 114.828 17.2416C114.494 17.2798 113.63 17.3754 113.354 17.318C112.781 17.2034 112.81 16.592 113.311 16.4073C113.666 16.2736 114.864 16.2417 115.372 16.1526C118.072 15.7004 121.665 14.2802 122.108 11.5799C122.551 8.8796 117.905 7.34476 115.452 8.26184V8.25547ZM121.477 8.2491C120.337 6.51684 117.644 6.04556 115.546 5.77808L115.452 7.26197C117.071 6.87348 118.798 7.02633 120.315 7.65682C120.722 7.82877 121.063 8.09626 121.477 8.2491Z" fill="black"/>
<path d="M89.467 4.65525C89.2058 4.60419 89.0462 4.25317 88.9808 4.24041C88.3858 4.11276 86.5426 4.61058 86.3394 4.01703C86.1943 3.5958 86.4846 3.37242 86.9345 3.32774C88.2334 3.19372 90.4685 3.28307 91.8327 3.32774C93.0446 3.36604 94.6918 3.42986 95.8746 3.58304C96.4261 3.65324 97.9355 4.08723 97.4348 4.76375C97.2026 5.08286 95.178 4.71269 94.6991 4.73822C93.8355 8.05699 94.7281 11.5353 95.1562 14.8668C95.0546 15.3647 94.7644 15.4923 94.2274 15.32C94.1258 15.4221 94.329 16.1433 94.2782 16.3156C94.1911 16.6411 93.5961 16.8453 93.3348 16.5581C93.1171 16.322 92.7761 13.4947 92.718 12.9649C92.4568 10.6163 92.2826 7.96764 92.2391 5.61259C92.2246 4.66802 93.2695 4.80204 93.3276 5.56791C93.4727 5.36368 93.7267 4.83396 93.5162 4.66164H89.4743L89.467 4.65525Z" fill="black"/>
<path d="M127.938 4.45972C128.268 4.75097 128.009 5.65637 128.375 5.99827C128.404 5.40944 128.541 4.59901 129.402 4.59901C130.378 4.59901 130.737 5.88431 129.538 5.75768C129.689 6.34018 129.768 6.92267 129.818 7.51783C129.983 9.41728 130.005 11.3547 130.091 13.2605C130.112 13.71 130.327 14.7357 130.177 15.1346C130.098 15.3309 129.66 15.3562 129.473 15.2929C129.057 15.141 129.172 14.7864 129.165 14.4508C128.878 14.3938 129 14.6914 128.835 14.856C128.605 15.0903 128.153 15.0776 127.974 14.7991C127.765 14.4761 127.536 13.1719 127.443 12.7287C126.955 10.443 126.488 7.44818 126.947 5.15618C126.983 4.97257 127.055 4.49137 127.213 4.40273C127.371 4.31409 127.809 4.35208 127.938 4.46605V4.45972Z" fill="black"/>
<path d="M67.2145 15.7918C66.8895 16.8041 66.4056 18.0113 64.8671 17.6277C64.6288 17.5649 64.3688 17.263 64.3399 17.2568C63.8487 17.175 63.6248 17.4517 62.9314 17.1122C62.1297 16.716 62.2164 15.9867 62.4114 15.3202C62.7292 14.2073 63.3359 12.8492 64.9177 12.8555C65.4955 12.8555 66.9112 13.4591 67.1423 13.9432C67.2506 14.1633 67.164 14.4022 67.2579 14.5783C67.3879 14.8172 68.4424 15.1064 68.2979 15.5591C68.1535 16.0118 67.6046 15.9867 67.2145 15.7981V15.7918Z" fill="black"/>
</svg>
