<?xml version="1.0" encoding="UTF-8"?>
<svg id="Layer_2" data-name="Layer 2" xmlns="http://www.w3.org/2000/svg" viewBox="0 0 66.48 60.23">
  <defs>
    <style>
      .cls-1, .cls-2 {
        fill: #fff;
      }

      .cls-2 {
        stroke: #fff;
        stroke-miterlimit: 10;
      }
    </style>
  </defs>
  <g id="Layer_1-2" data-name="Layer 1">
    <path class="cls-1" d="M58.48,8v44.23H8V8h50.48M66.48,0H0v60.23h66.48V0h0Z"/>
    <g>
      <circle class="cls-1" cx="20.23" cy="19.86" r="7.25"/>
      <path class="cls-1" d="M20.23,13.11c3.73,0,6.75,3.02,6.75,6.75s-3.02,6.75-6.75,6.75-6.75-3.02-6.75-6.75,3.02-6.75,6.75-6.75M20.23,12.11c-4.27,0-7.75,3.48-7.75,7.75s3.48,7.75,7.75,7.75,7.75-3.48,7.75-7.75-3.48-7.75-7.75-7.75h0Z"/>
    </g>
    <polygon class="cls-2" points="4.3 56.42 40.88 22.5 62.17 37.12 62.17 57.53 4.3 56.42"/>
  </g>
</svg>