<svg width="800" height="800" viewBox="0 0 800 800" fill="none" xmlns="http://www.w3.org/2000/svg">
<g clip-path="url(#clip0_478_3)">
<rect width="800" height="800" fill="#4965F7"/>
<rect x="580" y="32.0002" width="736" height="548" rx="7.86993" transform="rotate(90 580 32.0002)" fill="black"/>
<path d="M673.846 396.107C621.798 396.107 579.566 354.43 579.566 303L572.054 303C572.054 354.405 529.847 396.107 477.77 396.107L477.77 403.53C529.823 403.53 572.054 445.212 572.054 496.638L579.566 496.638C579.566 445.232 621.773 403.53 673.846 403.53L673.846 396.107Z" fill="black"/>
<g filter="url(#filter0_d_478_3)">
<path d="M171.708 346H186.228V430H171.708V366.52C164.988 374.92 155.748 379.84 145.308 381.28V368.08C157.428 366.4 168.108 357.4 171.708 346ZM255.802 416.92L270.322 370H284.602L262.642 434.56C259.522 443.92 253.402 455.32 238.402 455.32C235.162 455.32 231.682 454.84 228.562 453.64V441.76C231.562 442.84 234.322 443.44 236.962 443.44C244.522 443.44 247.762 438.28 249.682 433.36L225.562 370H240.082L255.802 416.92ZM331.458 411.04H346.338C342.858 423.64 332.178 431.68 317.178 431.68C298.458 431.68 286.578 419.08 286.578 400C286.578 380.92 298.578 368.32 317.538 368.32C338.658 368.32 349.578 384.16 343.818 403.84H301.098C302.298 413.8 307.818 419.68 317.418 419.68C324.138 419.68 329.418 416.56 331.458 411.04ZM317.298 379.84C308.298 379.84 302.778 384.88 301.338 394.12H330.858C331.698 385.48 326.778 379.84 317.298 379.84ZM381.338 368.32C398.858 368.32 407.738 379.24 407.738 395.92V430H395.138V419.56C390.698 427.24 383.378 431.68 373.538 431.68C360.818 431.68 352.898 424.24 352.898 413.8C352.898 401.68 363.458 394.36 380.378 394.36C385.058 394.36 389.858 394.96 394.058 395.92C394.058 386.8 390.818 380.2 381.218 380.2C374.018 380.2 369.578 383.8 371.018 390.52H357.218C353.978 377.2 365.738 368.32 381.338 368.32ZM376.298 420.76C385.058 420.76 392.258 415.12 394.538 406.36C390.578 405.04 385.778 404.32 381.458 404.32C371.618 404.32 366.818 407.92 366.818 413.44C366.818 418.24 370.418 420.76 376.298 420.76ZM449.885 368.32C459.365 368.32 465.485 375.52 465.485 385.6C465.485 389.92 464.405 394.24 462.605 397.84H448.325C450.365 394.48 451.325 391.24 451.325 388.48C451.325 383.68 448.685 380.44 444.485 380.44C438.005 380.44 433.445 388.48 433.445 400.6V430H419.765V370H433.445V380.2C436.685 372.76 442.445 368.32 449.885 368.32Z" fill="white"/>
</g>
</g>
<defs>
<filter id="filter0_d_478_3" x="-139.375" y="61.3166" width="889.544" height="678.687" filterUnits="userSpaceOnUse" color-interpolation-filters="sRGB">
<feFlood flood-opacity="0" result="BackgroundImageFix"/>
<feColorMatrix in="SourceAlpha" type="matrix" values="0 0 0 0 0 0 0 0 0 0 0 0 0 0 0 0 0 0 127 0" result="hardAlpha"/>
<feOffset/>
<feGaussianBlur stdDeviation="142.342"/>
<feComposite in2="hardAlpha" operator="out"/>
<feColorMatrix type="matrix" values="0 0 0 0 0.0281325 0 0 0 0 0.184885 0 0 0 0 1 0 0 0 1 0"/>
<feBlend mode="overlay" in2="BackgroundImageFix" result="effect1_dropShadow_478_3"/>
<feBlend mode="normal" in="SourceGraphic" in2="effect1_dropShadow_478_3" result="shape"/>
</filter>
<clipPath id="clip0_478_3">
<rect width="800" height="800" fill="white"/>
</clipPath>
</defs>
</svg>
