<svg width="384" height="55" viewBox="0 0 384 55" fill="none" xmlns="http://www.w3.org/2000/svg">
<path d="M363.555 0.0107435C350.716 0.0107435 343.1 9.29478 343.1 20.5644C343.1 31.8341 350.716 41.1181 363.555 41.1181C376.394 41.1181 384 31.9521 384 20.5644C384 9.17672 376.383 0.0107435 363.545 0.0107435H363.555ZM363.545 36.2131C354.356 36.2131 348.628 29.4514 348.628 20.5644C348.628 11.6775 354.356 4.91572 363.545 4.91572C372.733 4.91572 378.462 11.7419 378.462 20.5644C378.462 29.387 372.744 36.2453 363.555 36.2453L363.545 36.2131ZM184.215 4.94791C191.388 4.94791 196.473 9.99242 196.8 15.2301H202.138C201.811 7.59897 195.291 0.0429412 184.478 0.0429412C171.386 0.0429412 163.96 9.39137 163.96 20.661C163.96 31.7375 170.996 41.1503 184.805 41.1503C193.087 41.1503 199.142 37.2972 202.138 33.5192L198.625 30.2993C194.982 34.0635 190.019 36.2022 184.826 36.2453C174.467 36.2453 169.582 29.344 169.582 20.661C169.582 11.377 175.247 4.94791 184.236 4.94791H184.215ZM243.735 1.37382V17.9992C243.735 29.8699 236.761 36.2453 228.965 36.2453C222.509 36.2453 218.996 31.5335 218.996 23.6448V1.34162H206.337V5.97829H213.637V24.9435C213.637 34.3563 218.912 41.1181 228.564 41.1181C236.055 41.1181 241.139 37.2006 243.682 31.6301V39.7872H249.02V1.34162L243.735 1.37382ZM334.302 1.37382L320.587 34.3134L306.578 1.37382H296.144V6.01049H302.769L317.697 41.2147C315.481 46.71 311.895 50.0909 307.4 50.0909C305.871 50.1627 304.348 49.8455 302.97 49.1679V54.1372C304.64 54.7475 306.407 55.0386 308.181 54.9959C314.637 54.9959 319.068 51.1535 322.128 43.9946L340.062 1.37382H334.302ZM272.007 8.33954V1.38457H255.982V6.02121H266.669V35.172H255.982V39.8087H285.036V35.172H272.007V17.1406C273.062 10.8403 278.527 5.00158 285.236 5.00158C287.623 4.91391 290 5.34571 292.209 6.26808V1.3631C290.412 0.441165 288.419 -0.0159496 286.407 0.0321977C283.508 0.0419803 280.66 0.811496 278.137 2.26655C275.615 3.7216 273.504 5.81313 272.007 8.33954ZM140.002 8.33954V1.38457H123.967V6.02121H134.653V35.172H123.967V39.8087H153.03V35.172H140.002V17.1406C140.972 10.8403 146.511 5.00158 153.294 5.00158C155.656 4.91837 158.009 5.3502 160.193 6.26808V1.3631C158.377 0.442122 156.367 -0.0146907 154.338 0.0321977C151.452 0.0631953 148.621 0.842257 146.112 2.2958C143.604 3.74934 141.501 5.82939 140.002 8.33954ZM67.9385 35.172V15.6595C67.9385 6.83693 62.4 0.0107435 54.0554 0.0107435C45.7108 0.0107435 41.7442 5.37724 39.8558 9.67044C38.9752 6.8333 37.2185 4.36089 34.8465 2.62061C32.4746 0.880326 29.6141 -0.0349538 26.6901 0.0107435C19.3055 0.0107435 15.4127 4.38981 13.3345 8.36102V1.34162H0V5.97829H7.94374V39.7872H13.2923V17.1835C13.8092 12.7401 17.5121 4.98011 25.6668 4.98011C31.5956 4.98011 35.309 8.36101 35.309 17.2479V39.7872H40.6576V16.9796C41.3749 12.6864 44.8774 4.98011 52.9688 4.98011C58.9609 4.98011 62.5477 8.36101 62.5477 17.2479V39.7872H73.9517V35.172H67.9385ZM98.8167 0.0321977C86.3051 0.0321977 78.6884 9.38065 78.6884 20.6503C78.6884 32.1883 85.978 41.1396 99.5341 41.1396C107.974 41.1396 113.997 36.9645 116.413 33.7124L112.89 30.4925C109.64 34.0773 105.136 36.2024 99.1754 36.2024C90.7358 36.2024 85.0391 30.4925 84.4062 22.3461H118.618C118.691 21.7513 118.734 21.153 118.745 20.5537C118.745 9.21966 111.444 0 98.8695 0L98.8167 0.0321977ZM113.143 17.6987H84.48C85.535 10.1856 91.0629 4.90499 98.8167 4.90499C102.352 4.78025 105.799 6.03602 108.453 8.41485C111.107 10.7937 112.766 14.1153 113.09 17.6987" fill="white"/>
</svg>
